<svg width="120" height="37" viewBox="0 0 120 37" fill="none" xmlns="http://www.w3.org/2000/svg">
<path d="M0.767578 9.18638V36.629H79.8826L119.956 28.5251V0.898315H41.0131L0.767578 9.18638Z" fill="#FFDD2D"/>
<path d="M11.7618 13.2835H14.8818V18.4835H20.4018V13.2835H23.5218V26.2635H20.4018V20.7035H14.8818V26.2635H11.7618V13.2835ZM32.3726 26.4635C31.6526 26.4635 30.9859 26.4169 30.3726 26.3235C29.7726 26.2302 29.1459 26.0702 28.4926 25.8435C27.7859 25.6035 27.2326 25.2169 26.8326 24.6835C26.4326 24.1369 26.2326 23.4769 26.2326 22.7035V17.0235C26.2326 16.3835 26.3726 15.8102 26.6526 15.3035C26.9459 14.7969 27.3193 14.3969 27.7726 14.1035C28.1726 13.8502 28.6659 13.6369 29.2526 13.4635C29.8393 13.2902 30.3859 13.1835 30.8926 13.1435C31.3593 13.1035 31.8526 13.0835 32.3726 13.0835C32.9859 13.0835 33.5193 13.1102 33.9726 13.1635C34.4259 13.2035 34.9326 13.2969 35.4926 13.4435C36.1326 13.6302 36.6593 13.8569 37.0726 14.1235C37.4859 14.3902 37.8326 14.7635 38.1126 15.2435C38.4059 15.7369 38.5526 16.3302 38.5526 17.0235V22.7035C38.5526 23.4235 38.3593 24.0435 37.9726 24.5635C37.5993 25.0835 37.0793 25.4769 36.4126 25.7435C35.2126 26.2235 33.8659 26.4635 32.3726 26.4635ZM32.4126 24.2435C32.8526 24.2435 33.2193 24.2302 33.5126 24.2035C33.8193 24.1635 34.1326 24.0969 34.4526 24.0035C34.7726 23.9102 35.0126 23.7569 35.1726 23.5435C35.3459 23.3169 35.4326 23.0369 35.4326 22.7035V17.0035C35.4326 16.3902 35.1859 15.9569 34.6926 15.7035C34.1993 15.4369 33.4326 15.3035 32.3926 15.3035C31.3526 15.3035 30.5859 15.4302 30.0926 15.6835C29.5993 15.9369 29.3526 16.3769 29.3526 17.0035V22.7035C29.3526 23.0369 29.4393 23.3169 29.6126 23.5435C29.7859 23.7569 30.0393 23.9102 30.3726 24.0035C30.6926 24.0969 30.9993 24.1635 31.2926 24.2035C31.5993 24.2302 31.9726 24.2435 32.4126 24.2435ZM41.2634 13.2835H45.7034L48.9034 22.5635L52.0634 13.2835H56.2434V26.2635H53.4234V16.6635H53.3634L50.0834 26.2635H47.5834L44.2034 16.6635H44.1234V26.2635H41.2634V13.2835ZM59.2368 13.2835H69.1368V15.5035H62.3568V18.4835H68.4768V20.7035H62.3568V24.0435H69.3368V26.2635H59.2368V13.2835ZM71.6438 13.2835H74.8038L81.0838 22.1435V13.2835H83.8638V26.2635H80.7038L74.4238 17.2635V26.2635H71.6438V13.2835ZM86.8634 13.2835H96.7634V15.5035H89.9834V18.4835H96.1034V20.7035H89.9834V24.0435H96.9634V26.2635H86.8634V13.2835ZM102.27 15.5035H98.2704V13.2835H109.37V15.5035H105.39V26.2635H102.27V15.5035Z" fill="black"/>
</svg>
