<svg width="33" height="33" viewBox="0 0 33 33" fill="none" xmlns="http://www.w3.org/2000/svg">
<path d="M24.4959 9.17398H17.496C17.3808 9.20167 17.1462 9.28378 17.1284 9.39071C17.1107 9.49765 17.1211 9.7841 17.1284 9.91396V24.7135C17.139 24.8334 17.1721 25.1059 17.2205 25.2367C17.2688 25.3676 17.4882 25.4357 17.5918 25.4535H24.4959C24.7611 25.4535 25.0154 25.3755 25.203 25.2367C25.3905 25.098 25.4958 24.9097 25.4958 24.7135V9.91396C25.4958 9.7177 25.3905 9.52949 25.203 9.39071C25.0154 9.25194 24.7611 9.17398 24.4959 9.17398Z" fill="#2562FF" stroke="#2562FF" stroke-width="2" stroke-linecap="round" stroke-linejoin="round"/>
<path d="M13.4102 22.5637L18.6602 17.3137L13.4102 12.0637" stroke="white" stroke-width="2" stroke-linecap="round" stroke-linejoin="round"/>
<path d="M4.66016 17.3137H18.6602" stroke="white" stroke-width="2" stroke-linecap="round" stroke-linejoin="round"/>
<path d="M12.2461 22.5637L17.4961 17.3137L12.2461 12.0637" stroke="#2562FF" stroke-width="2" stroke-linecap="round" stroke-linejoin="round"/>
<path d="M3.49609 17.3137H17.4961" stroke="#2562FF" stroke-width="2" stroke-linecap="round" stroke-linejoin="round"/>
</svg>
