<svg width="20" height="21" viewBox="0 0 20 21" fill="none" xmlns="http://www.w3.org/2000/svg">
<path d="M12.5013 6.63908L5.9935 13.2563C5.77805 13.494 5.66229 13.8056 5.67019 14.1263C5.67809 14.4471 5.80904 14.7526 6.03593 14.9795C6.26282 15.2064 6.56827 15.3373 6.88905 15.3452C7.20982 15.3531 7.52135 15.2373 7.75913 15.0219L15.5169 7.1547C15.9478 6.67914 16.1794 6.05609 16.1636 5.41454C16.1478 4.77299 15.8859 4.16209 15.4321 3.70831C14.9783 3.25453 14.3674 2.99263 13.7259 2.97683C13.0843 2.96104 12.4613 3.19256 11.9857 3.62345L4.22788 11.4906C3.52547 12.1931 3.13086 13.1457 3.13086 14.1391C3.13086 15.1324 3.52547 16.0851 4.22788 16.7875C4.93029 17.4899 5.88296 17.8845 6.87632 17.8845C7.86967 17.8845 8.82234 17.4899 9.52475 16.7875L15.9388 10.3891" stroke="#9DAED7" stroke-linecap="round" stroke-linejoin="round"/>
</svg>
